{"title":"True.Blood.S05E02.HDTV.XviD-Atilla82","uid":7364140,"size":414948845,"categoryP":"video","categoryS":"tv_shows","magnet":"?xt=urn:btih:1d9808cd95ca448c354bb7f64b72eb18b85736b3&amp;dn=True.Blood.S05E02.HDTV.XviD-Atilla82&amp;tr=udp%3A%2F%2Ftracker.openbittorrent.com%3A80&amp;tr=udp%3A%2F%2Fopen.demonii.com%3A1337&amp;tr=udp%3A%2F%2Ftracker.coppersurfer.tk%3A6969&amp;tr=udp%3A%2F%2Fexodus.desync.com%3A6969","seeders":1,"leechers":0,"uploader":"Atilla82","files":4,"time":1340050744,"description":"True Blood S05E02 HDTV XviD-Atilla82\n\n &lt;a href=&quot;\nhttp://www.imdb.com/title/tt0844441/&quot; rel=&quot;nofollow&quot; target=&quot;_NEW&quot;&gt;\nhttp://www.imdb.com/title/tt0844441/&lt;/a&gt;\n \n\n\nIn a world where vampires have &quot;come out of the coffin&quot;, Sookie Stackhouse, a telepathic waitress, discovers a new world of different creatures when she meets Bill Compton, a vampire.\n\n\n\nGeneral\nComplete name : True.Blood.S05E02.HDTV.XviD-Atilla82.avi\nFormat : AVI\nFormat/Info : Audio Video Interleave\nFile size : 396 MiB\nDuration : 56mn 31s\nOverall bit rate : 978 Kbps\nWriting application : Nandub v1.0rc2\nWriting library : Nandub build 1853/release\n\nVideo\nID : 0\nFormat : MPEG-4 Visual\nFormat profile : Advanced Simple@L5\nFormat settings, BVOP : No\nFormat settings, QPel : Yes\nFormat settings, GMC : No warppoints\nFormat settings, Matrix : Default (H.263)\nCodec ID : XVID\nCodec ID/Hint : XviD\nDuration : 56mn 31s\nBit rate : 837 Kbps\nWidth : 680 pixels\nHeight : 380 pixels\nDisplay aspect ratio : 16:9\nFrame rate : 23.976 fps\nColor space : YUV\nChroma subsampling : 4:2:0\nBit depth : 8 bits\nScan type : Progressive\nCompression mode : Lossy\nBits/(Pixel*Frame) : 0.135\nStream size : 339 MiB (86%)\nWriting library : XviD 64\n\nAudio\nID : 1\nFormat : MPEG Audio\nCodec ID : 55\nCodec ID/Hint : MP3\nDuration : 56mn 31s\nBit rate : 128 Kbps\nChannel(s) : 2 channels\nSampling rate : 48.0 KHz\nCompression mode : Lossy\nStream size : 51.7 MiB (13%)\nAlignment : Split accross interleaves\nInterleave, duration : 24 ms (0.58 video frame)\nInterleave, preload duration : 484 ms\n\n\nSCREENSHOTS &lt;a href=&quot;\nhttp://www.pohrani.com/f/2g/Pq/4vJEGOmf/truebloods05e02hdtvxvid-.jpg&quot; rel=&quot;nofollow&quot; target=&quot;_NEW&quot;&gt;\nhttp://www.pohrani.com/f/2g/Pq/4vJEGOmf/truebloods05e02hdtvxvid-.jpg&lt;/a&gt;\n","torrent":{"xt":"urn:btih:1d9808cd95ca448c354bb7f64b72eb18b85736b3","amp;dn":"True.Blood.S05E02.HDTV.XviD-Atilla82","amp;tr":["udp%3A%2F%2Ftracker.openbittorrent.com%3A80","udp%3A%2F%2Fopen.demonii.com%3A1337","udp%3A%2F%2Ftracker.coppersurfer.tk%3A6969","udp%3A%2F%2Fexodus.desync.com%3A6969"],"infoHash":"1d9808cd95ca448c354bb7f64b72eb18b85736b3","infoHashBuffer":{"type":"Buffer","data":[29,152,8,205,149,202,68,140,53,75,183,246,75,114,235,24,184,87,54,179]},"announce":[],"urlList":[]}}